# xmcd CD database file
#
# Track frame offsets:
#	150
#	51172
#	75600
#	111502
#	167375
#	219710
#
# Disc length: 3579 seconds
#
# Revision: 0
# Processed by: cddbd v1.5.1PL0 Copyright (c) Steve Scherf et al.
# Submitted via: ACXtractor (MTCDDB.DLL V2003.12.21)
#
DISCID=4c0df906
DTITLE=Caesar Franck - Gesammelte Werke 1
DYEAR=1990
DGENRE=Classical
TTITLE0=Fantasie No 2
TTITLE1=Cantabile
TTITLE2=Pièce Héorique
TTITLE3=Choral I
TTITLE4=Choral II
TTITLE5=Choral III
EXTD=ID3G:  32 YEAR: 1990
EXTT0=
EXTT1=
EXTT2=
EXTT3=
EXTT4=
EXTT5=
PLAYORDER=
